<svg width="176" height="103" viewBox="0 0 176 103" fill="none" xmlns="http://www.w3.org/2000/svg">
<path d="M1.13582 32.1967C-0.162325 33.2262 -0.380054 35.1132 0.649506 36.4114C1.67907 37.7095 3.56604 37.9272 4.86418 36.8977L1.13582 32.1967ZM154.157 101.914C155.464 102.932 157.349 102.698 158.367 101.39L174.955 80.0866C175.973 78.7793 175.738 76.8943 174.431 75.8764C173.123 74.8585 171.238 75.0931 170.221 76.4004L155.476 95.3371L136.539 80.5925C135.232 79.5746 133.347 79.8092 132.329 81.1165C131.311 82.4238 131.546 84.3088 132.853 85.3267L154.157 101.914ZM4.86418 36.8977C33.5273 14.1649 67.1903 1.91212 95.0717 9.01682C122.563 16.0221 145.85 42.2849 153.023 99.9178L158.977 99.1767C151.65 40.3095 127.437 11.0724 96.5533 3.20261C66.0597 -4.56769 30.4727 8.92954 1.13582 32.1967L4.86418 36.8977Z" fill="#7DEBD9"/>
</svg>
