<svg width="36" height="36" viewBox="0 0 36 36" fill="none" xmlns="http://www.w3.org/2000/svg">
<circle cx="18" cy="18" r="18" fill="white"/>
<g clip-path="url(#clip0_739_10096)">
<path d="M26.8118 18.1521H9.18816H8V23.9895C8 24.9027 8.74293 25.6456 9.65609 25.6456H26.344C27.2571 25.6456 28 24.9027 28 23.9895V18.1521H26.8118ZM14.4818 20.5286H9.74215V19.3404H14.4818V20.5286ZM20.3698 20.5286H15.6302V19.3404H20.3698V20.5286H20.3698ZM26.2579 20.5286H21.5182V19.3404H26.2579V20.5286Z" fill="#1B9B85"/>
<path d="M26.3439 11.0044H9.65609C8.74293 11.0044 8 11.7473 8 12.6604V13.8255H28V12.6604C28 11.7473 27.2571 11.0044 26.3439 11.0044Z" fill="#1B9B85"/>
<path d="M8 15.0137V15.4097V16.9637H9.18816H26.8118H28V15.4097V15.0137H8Z" fill="#1B9B85"/>
</g>
<defs>
<clipPath id="clip0_739_10096">
<rect width="20" height="14.65" fill="white" transform="translate(8 11)"/>
</clipPath>
</defs>
</svg>
