<svg width="22" height="22" viewBox="0 0 22 22" fill="none" xmlns="http://www.w3.org/2000/svg">
<path d="M21 11H17.7539C16.6185 11 15.517 11.3864 14.6304 12.0957L13.4988 13.001C12.0379 14.1697 9.96209 14.1697 8.50122 13.001L7.36957 12.0957C6.48301 11.3864 5.38145 11 4.24609 11H1" stroke="#1B9B85" stroke-width="1.5" stroke-linecap="round"/>
<path d="M1 5C1 2.79086 2.79086 1 5 1H17C19.2091 1 21 2.79086 21 5V17C21 19.2091 19.2091 21 17 21H5C2.79086 21 1 19.2091 1 17V5Z" stroke="#1B9B85" stroke-width="1.5"/>
<path d="M1 10C1 7.79086 2.79086 6 5 6H17C19.2091 6 21 7.79086 21 10V17C21 19.2091 19.2091 21 17 21H5C2.79086 21 1 19.2091 1 17V10Z" stroke="#1B9B85" stroke-width="1.5"/>
</svg>
