<svg width="22" height="22" viewBox="0 0 22 22" fill="none" xmlns="http://www.w3.org/2000/svg">
<path d="M11.9145 1.02845L9.10547 3.5L8 4.49898H17.5555L14.3102 1.74519C13.6101 1.2215 12.785 0.39633 11.9145 1.02845Z" stroke="#1B9B85" stroke-width="1.5"/>
<path d="M10.3102 1.74519C9.61013 1.2215 8.78496 0.39633 7.91453 1.02845L5.10547 3.5L4 4.49898H13.5555" stroke="#1B9B85" stroke-width="1.5"/>
<path d="M21 9.83333V15.1667C21 18.3667 19 20.5 16 20.5H6C3 20.5 1 18.3667 1 15.1667V9.83333C1 6.932 2.64 4.90533 5.19 4.564C5.45 4.52133 5.72 4.5 6 4.5H16C16.26 4.5 16.51 4.51065 16.75 4.55332C19.33 4.87332 21 6.91067 21 9.83333Z" stroke="#1B9B85" stroke-width="1.5" stroke-linecap="round" stroke-linejoin="round"/>
<path d="M17 10.5H20.1429C20.6162 10.5 21 10.8838 21 11.3571V13.6429C21 14.1162 20.6162 14.5 20.1429 14.5H17C15.8954 14.5 15 13.6046 15 12.5C15 11.3954 15.8954 10.5 17 10.5Z" stroke="#1B9B85" stroke-width="1.5" stroke-linecap="round"/>
</svg>
