<svg width="22" height="22" viewBox="0 0 22 22" fill="none" xmlns="http://www.w3.org/2000/svg">
<path opacity="0.965" fill-rule="evenodd" clip-rule="evenodd" d="M10.0117 0C10.6706 0 11.3294 0 11.9883 0C15.8402 0.467839 18.7406 2.37279 20.6895 5.71484C21.4068 7.06711 21.8436 8.49939 22 10.0117C22 10.6706 22 11.3294 22 11.9883C21.5322 15.8402 19.6272 18.7406 16.2852 20.6895C14.9329 21.4068 13.5006 21.8436 11.9883 22C11.3294 22 10.6706 22 10.0117 22C8.72992 21.8656 7.49818 21.5291 6.31641 20.9902C5.5348 21.0154 4.76137 21.1157 3.99609 21.291C2.96676 21.4981 1.94983 21.7345 0.945312 22C0.773438 22 0.601562 22 0.429688 22C0.305684 21.9407 0.198263 21.8548 0.107422 21.7422C0.0905468 21.4405 0.10487 21.1398 0.150391 20.8398C0.836602 19.9667 1.43816 19.0357 1.95508 18.0469C2.02238 17.9022 2.07251 17.7519 2.10547 17.5957C1.54284 16.7357 1.06303 15.8262 0.666016 14.8672C0.327377 13.9284 0.105372 12.9688 0 11.9883C0 11.3294 0 10.6706 0 10.0117C0.467822 6.15987 2.37277 3.25949 5.71484 1.31055C7.06711 0.593196 8.49939 0.156346 10.0117 0ZM10.957 1.375C14.9047 1.54661 17.8051 3.36562 19.6582 6.83203C20.6955 9.10173 20.8673 11.4363 20.1738 13.8359C18.9666 17.3062 16.5819 19.4904 13.0195 20.3887C10.8433 20.8343 8.75213 20.5765 6.74609 19.6152C6.55566 19.5713 6.3623 19.5498 6.16602 19.5508C4.89423 19.6576 3.64098 19.8724 2.40625 20.1953C2.70298 19.6748 2.99661 19.1305 3.28711 18.5625C3.52186 18.0656 3.57916 17.55 3.45898 17.0156C3.20117 16.6146 2.94336 16.2135 2.68555 15.8125C1.3368 13.3848 1.05034 10.8353 1.82617 8.16406C3.10472 4.49909 5.64704 2.28621 9.45312 1.52539C9.95891 1.45388 10.4602 1.40375 10.957 1.375Z" fill="#1B9B85"/>
<path opacity="0.967" fill-rule="evenodd" clip-rule="evenodd" d="M10.4417 5.50004C12.1846 5.35051 13.4379 6.05236 14.2014 7.60551C14.7601 9.27339 14.4236 10.7271 13.1917 11.9668C12.5699 12.4871 11.8538 12.795 11.0432 12.8907C11.0075 13.4917 10.986 14.0933 10.9788 14.6954C10.8582 14.9956 10.6362 15.1388 10.3128 15.125C9.98935 15.1388 9.76737 14.9956 9.64676 14.6954C9.6181 13.836 9.6181 12.9766 9.64676 12.1172C9.73506 11.8857 9.88545 11.7067 10.0979 11.5801C10.5723 11.5111 11.0449 11.4252 11.5159 11.3223C12.5068 10.8813 13.0224 10.1151 13.0628 9.02348C13.0069 7.94441 12.4626 7.24977 11.43 6.9395C10.263 6.81016 9.46805 7.28999 9.0452 8.37895C8.98027 8.71961 8.9373 9.06336 8.91629 9.4102C8.65483 9.86769 8.28959 9.97511 7.82059 9.73247C7.58705 9.50383 7.50112 9.22453 7.56278 8.89458C7.61619 7.40459 8.31804 6.35186 9.66825 5.73637C9.92739 5.64322 10.1852 5.56445 10.4417 5.50004Z" fill="#1B9B85"/>
<path opacity="0.937" fill-rule="evenodd" clip-rule="evenodd" d="M10.0553 15.8125C10.8836 15.7742 11.1629 16.1466 10.8932 16.9297C10.5947 17.2119 10.2582 17.2621 9.8834 17.0801C9.60113 16.7816 9.55099 16.4451 9.73301 16.0703C9.82384 15.9577 9.93126 15.8717 10.0553 15.8125Z" fill="#1B9B85"/>
</svg>
