<svg width="24" height="18" viewBox="0 0 24 18" fill="none" xmlns="http://www.w3.org/2000/svg">
<path fill-rule="evenodd" clip-rule="evenodd" d="M19.4697 1.46967C19.7626 1.17678 20.2374 1.17678 20.5303 1.46967L23.0303 3.96967C23.3232 4.26256 23.3232 4.73744 23.0303 5.03033C22.7374 5.32322 22.2626 5.32322 21.9697 5.03033L20.75 3.81066L20.75 8.5C20.75 8.91421 20.4142 9.25 20 9.25C19.5858 9.25 19.25 8.91421 19.25 8.5L19.25 3.81066L18.0303 5.03033C17.7374 5.32322 17.2626 5.32322 16.9697 5.03033C16.6768 4.73744 16.6768 4.26256 16.9697 3.96967L19.4697 1.46967Z" fill="#1B9B85"/>
<path fill-rule="evenodd" clip-rule="evenodd" d="M0.75 5.5C0.75 2.87665 2.77538 0.75 5.27381 0.75H15.3248C15.7193 0.75 16.0391 1.08579 16.0391 1.5C16.0391 1.91421 15.7193 2.25 15.3248 2.25H5.27381C3.56436 2.25 2.17857 3.70507 2.17857 5.5V6.75H15.3248C15.7193 6.75 16.0391 7.08579 16.0391 7.5C16.0391 7.91421 15.7193 8.25 15.3248 8.25H2.17857V12.5C2.17857 14.2949 3.56436 15.75 5.27381 15.75H16.4643C18.0422 15.75 19.3214 14.4069 19.3214 12.75V11.6953C19.3214 11.2811 19.6412 10.9453 20.0357 10.9453C20.4302 10.9453 20.75 11.2811 20.75 11.6953V12.75C20.75 15.2353 18.8312 17.25 16.4643 17.25H5.27381C2.77538 17.25 0.75 15.1234 0.75 12.5V5.5Z" fill="#1B9B85"/>
</svg>
