<svg width="24" height="24" viewBox="0 0 24 24" fill="none" xmlns="http://www.w3.org/2000/svg">
<g clip-path="url(#clip0_739_7176)">
<path d="M20.8118 12.152H3.18816H2V17.9895C2 18.9026 2.74293 19.6456 3.65609 19.6456H20.344C21.2571 19.6456 22 18.9026 22 17.9895V12.152H20.8118ZM8.48176 14.5285H3.74215V13.3404H8.48176V14.5285ZM14.3698 14.5285H9.6302V13.3404H14.3698V14.5285H14.3698ZM20.2579 14.5285H15.5182V13.3404H20.2579V14.5285Z" fill="#1B9B85"/>
<path d="M20.3439 5.00452H3.65609C2.74293 5.00452 2 5.74745 2 6.66057V7.82561H22V6.66057C22 5.74745 21.2571 5.00452 20.3439 5.00452Z" fill="#1B9B85"/>
<path d="M2 9.01379V9.40985V10.9639H3.18816H20.8118H22V9.40985V9.01379H2Z" fill="#1B9B85"/>
</g>
<defs>
<clipPath id="clip0_739_7176">
<rect width="20" height="14.65" fill="white" transform="translate(2 5)"/>
</clipPath>
</defs>
</svg>
