<svg width="24" height="15" viewBox="0 0 24 15" fill="none" xmlns="http://www.w3.org/2000/svg">
<g clip-path="url(#clip0_739_7094)">
<path d="M23.1429 0.799988H0.857143C0.342857 0.799988 0 1.14284 0 1.65713V13.6571C0 14.1714 0.342857 14.5143 0.857143 14.5143H23.1429C23.6571 14.5143 24 14.1714 24 13.6571V1.65713C24 1.14284 23.6571 0.799988 23.1429 0.799988ZM18.9429 12.8H5.05714C4.71429 11.0857 3.42857 9.79999 1.71429 9.45713V5.85713C3.42857 5.51427 4.71429 4.22856 5.05714 2.51427H18.9429C19.2857 4.22856 20.5714 5.51427 22.2857 5.85713V9.45713C20.5714 9.79999 19.2857 11.0857 18.9429 12.8Z" fill="#1B9B85"/>
<path d="M11.9999 3.3714C10.1141 3.3714 8.57129 5.25711 8.57129 7.65711C8.57129 10.0571 10.1141 11.9428 11.9999 11.9428C13.8856 11.9428 15.4284 10.0571 15.4284 7.65711C15.4284 5.25711 13.8856 3.3714 11.9999 3.3714Z" fill="#1B9B85"/>
</g>
<defs>
<clipPath id="clip0_739_7094">
<rect width="24" height="13.7143" fill="white" transform="translate(0 0.799988)"/>
</clipPath>
</defs>
</svg>
