<svg width="20" height="20" viewBox="0 0 20 20" fill="none" xmlns="http://www.w3.org/2000/svg">
<g clip-path="url(#clip0_739_7286)">
<path opacity="0.982" fill-rule="evenodd" clip-rule="evenodd" d="M4.55078 -0.0195312C5.3841 -0.0195312 6.21746 -0.0195312 7.05078 -0.0195312C8.26137 0.0478125 9.44629 0.275677 10.6055 0.664062C10.9818 0.796672 11.3008 1.01152 11.5625 1.30859C11.7082 1.58573 11.6822 1.84615 11.4844 2.08984C11.0321 2.46245 10.5178 2.71636 9.94141 2.85156C7.48164 3.42147 5.00766 3.48657 2.51953 3.04687C1.79374 2.91434 1.10364 2.67997 0.449219 2.34375C0.257614 2.21082 0.101364 2.04807 -0.0195312 1.85547C-0.0195312 1.71224 -0.0195312 1.56901 -0.0195312 1.42578C0.0883066 1.24623 0.231536 1.0965 0.410156 0.976562C1.09634 0.609516 1.82551 0.362119 2.59766 0.234375C3.25171 0.127812 3.90275 0.0431769 4.55078 -0.0195312Z" fill="#1B9B85"/>
<path opacity="0.981" fill-rule="evenodd" clip-rule="evenodd" d="M-0.0195312 3.49609C1.23546 4.05059 2.55057 4.36961 3.92578 4.45313C5.69191 4.61547 7.44973 4.55035 9.19922 4.25781C10.0434 4.11746 10.8506 3.86357 11.6211 3.49609C11.6666 4.18582 11.6732 4.87594 11.6406 5.56641C11.5321 5.81809 11.3564 6.00691 11.1133 6.13281C10.409 6.48477 9.6668 6.71914 8.88672 6.83594C6.76223 7.18297 4.6398 7.16996 2.51953 6.79688C1.79374 6.66434 1.10364 6.42996 0.449219 6.09375C0.257614 5.96082 0.101364 5.79805 -0.0195312 5.60547C-0.0195312 4.90234 -0.0195312 4.19922 -0.0195312 3.49609Z" fill="#1B9B85"/>
<path opacity="0.981" fill-rule="evenodd" clip-rule="evenodd" d="M-0.0195312 7.24609C1.23546 7.80059 2.55057 8.11961 3.92578 8.20313C5.69191 8.36547 7.44973 8.30035 9.19922 8.00781C10.0434 7.86746 10.8506 7.61355 11.6211 7.24609C11.6666 7.93582 11.6732 8.62594 11.6406 9.31641C11.5321 9.56809 11.3564 9.75691 11.1133 9.88281C10.409 10.2348 9.6668 10.4691 8.88672 10.5859C6.76223 10.933 4.6398 10.92 2.51953 10.5469C1.79374 10.4143 1.10364 10.18 0.449219 9.84375C0.257614 9.71082 0.101364 9.54805 -0.0195312 9.35547C-0.0195312 8.65234 -0.0195312 7.94922 -0.0195312 7.24609Z" fill="#1B9B85"/>
<path opacity="0.982" fill-rule="evenodd" clip-rule="evenodd" d="M19.9805 12.2851C19.9805 12.4153 19.9805 12.5456 19.9805 12.6758C19.8172 12.9885 19.5698 13.2164 19.2383 13.3594C18.339 13.7424 17.4015 13.9768 16.4258 14.0625C14.4864 14.2865 12.5724 14.1563 10.6836 13.6719C10.1343 13.5308 9.65903 13.2639 9.25782 12.8711C9.04348 12.4584 9.12813 12.1133 9.51173 11.8359C9.87305 11.5938 10.2637 11.4115 10.6836 11.2891C12.4543 10.8333 14.2512 10.6901 16.0742 10.8594C17.172 10.9287 18.2267 11.1762 19.2383 11.6016C19.5698 11.7445 19.8172 11.9724 19.9805 12.2851Z" fill="#1B9B85"/>
<path opacity="0.981" fill-rule="evenodd" clip-rule="evenodd" d="M-0.0195312 10.9961C1.11139 11.5023 2.29629 11.8083 3.53516 11.9141C5.01898 12.0875 6.50336 12.094 7.98828 11.9336C7.99617 12.0308 7.97664 12.122 7.92969 12.207C7.91016 12.9621 7.90363 13.7173 7.91016 14.4727C5.81805 14.7021 3.74775 14.5784 1.69922 14.1016C1.19124 13.9777 0.722492 13.7694 0.292969 13.4766C0.164709 13.3683 0.0605422 13.2446 -0.0195312 13.1055C-0.0195312 12.4023 -0.0195312 11.6992 -0.0195312 10.9961Z" fill="#1B9B85"/>
<path opacity="0.971" fill-rule="evenodd" clip-rule="evenodd" d="M19.9805 14.3164C19.9805 14.7461 19.9805 15.1758 19.9805 15.6055C19.7012 16.0073 19.3236 16.2873 18.8477 16.4453C17.4591 16.8992 16.0334 17.114 14.5704 17.0898C13.2236 17.0981 11.9019 16.9223 10.6055 16.5625C10.1822 16.429 9.7916 16.2337 9.43367 15.9766C9.14461 15.6854 9.04043 15.3338 9.12117 14.9219C9.13418 14.72 9.14722 14.5182 9.16023 14.3164C10.0697 14.7783 11.0332 15.0713 12.0509 15.1953C14.0936 15.4796 16.1248 15.4145 18.1446 15C18.7906 14.8591 19.4026 14.6313 19.9805 14.3164Z" fill="#1B9B85"/>
<path opacity="0.981" fill-rule="evenodd" clip-rule="evenodd" d="M-0.0195312 14.7461C1.11139 15.2523 2.29629 15.5583 3.53516 15.6641C4.99305 15.8359 6.45141 15.8424 7.91016 15.6836C7.91016 16.53 7.91016 17.3763 7.91016 18.2227C5.81805 18.4521 3.74775 18.3284 1.69922 17.8516C1.19124 17.7277 0.722492 17.5194 0.292969 17.2266C0.164709 17.1183 0.0605422 16.9946 -0.0195312 16.8555C-0.0195312 16.1523 -0.0195312 15.4492 -0.0195312 14.7461Z" fill="#1B9B85"/>
<path opacity="0.972" fill-rule="evenodd" clip-rule="evenodd" d="M19.9803 17.2461C19.9803 17.6758 19.9803 18.1055 19.9803 18.5352C19.7165 18.9086 19.3649 19.1756 18.9256 19.3359C17.8807 19.69 16.8129 19.9049 15.7225 19.9805C14.9542 19.9805 14.186 19.9805 13.4178 19.9805C12.3252 19.9132 11.2575 19.6984 10.2147 19.3359C9.81813 19.1995 9.4861 18.9716 9.21856 18.6523C9.18489 18.5904 9.15883 18.5252 9.14043 18.457C9.10793 18.0528 9.11442 17.6491 9.15996 17.2461C10.3096 17.7907 11.5205 18.1097 12.7928 18.2031C14.8275 18.4156 16.8327 18.2594 18.8084 17.7344C19.2145 17.6028 19.6051 17.44 19.9803 17.2461Z" fill="#1B9B85"/>
</g>
<defs>
<clipPath id="clip0_739_7286">
<rect width="20" height="20" fill="white"/>
</clipPath>
</defs>
</svg>
