<svg width="20" height="13" viewBox="0 0 20 13" fill="none" xmlns="http://www.w3.org/2000/svg">
<g clip-path="url(#clip0_739_7234)">
<path d="M13.2254 0C12.4426 0 11.6926 0.143442 11 0.401639C12.6721 1.83607 13.7336 3.96721 13.7336 6.34016C13.7336 8.71721 12.6721 10.8443 11 12.2787C11.6926 12.5369 12.4426 12.6803 13.2254 12.6803C16.7295 12.6803 19.5656 9.84016 19.5656 6.34016C19.5656 2.84016 16.7254 0 13.2254 0Z" fill="#1B9B85"/>
<path d="M6.34016 0.00982666C2.84016 0.00982666 0 2.84589 0 6.34999C0 9.85409 2.84016 12.6902 6.34016 12.6902C9.84426 12.6902 12.6803 9.84999 12.6803 6.34999C12.6844 2.84589 9.84426 0.00982666 6.34016 0.00982666ZM8.55328 9.5631C8.36475 9.64917 8.16393 9.72294 7.96311 9.77622C7.18852 9.98934 6.41803 9.99753 5.64754 9.74753C4.72131 9.44835 4.10246 8.81311 3.73361 7.92786C3.66393 7.75573 3.61475 7.5754 3.56148 7.39507H2.83607C2.71311 7.39507 2.61475 7.29671 2.61475 7.17376V6.68196C2.61475 6.55901 2.71311 6.46065 2.83607 6.46065H3.43852C3.43852 6.3254 3.43852 6.19425 3.43852 6.06311H2.83607C2.71311 6.06311 2.61475 5.96474 2.61475 5.84179V5.34999C2.61475 5.22704 2.71311 5.12868 2.83607 5.12868H3.60246L3.62705 5.05081C3.83197 4.39507 4.18852 3.8377 4.73361 3.41147C5.16803 3.0754 5.66803 2.89097 6.20492 2.80491C6.97131 2.68196 7.70902 2.78851 8.42623 3.0672C8.47131 3.0836 8.51639 3.10819 8.56147 3.13278C8.73361 3.23524 8.77869 3.36229 8.70082 3.54671C8.61885 3.73933 8.54098 3.93606 8.45082 4.12458C8.37705 4.28852 8.27049 4.34179 8.09426 4.30081C7.85246 4.24753 7.61475 4.16966 7.36885 4.12048C6.85656 4.01802 6.34836 4.00983 5.84836 4.20655C5.42213 4.37458 5.15984 4.70245 4.97951 5.10819C4.97951 5.11229 4.97541 5.11638 4.97541 5.12458H6.46311C6.58607 5.12458 6.68443 5.22294 6.68443 5.34589V5.8377C6.68443 5.96065 6.58607 6.05901 6.46311 6.05901H4.7582C4.7582 6.19015 4.7582 6.3213 4.7582 6.45655H6.46311C6.58607 6.45655 6.68443 6.55491 6.68443 6.67786V7.16966C6.68443 7.29261 6.58607 7.39097 6.46311 7.39097H4.90574C5.09426 7.92786 5.39754 8.34179 5.97131 8.52212C6.43033 8.66556 6.89344 8.65737 7.35656 8.56311C7.59836 8.51392 7.83197 8.44016 8.07377 8.38688C8.26229 8.34589 8.36475 8.39507 8.44262 8.5672C8.53279 8.75983 8.61475 8.95655 8.69262 9.15327C8.78689 9.3377 8.7377 9.48114 8.55328 9.5631Z" fill="#1B9B85"/>
</g>
<defs>
<clipPath id="clip0_739_7234">
<rect width="20" height="12.7" fill="white"/>
</clipPath>
</defs>
</svg>
