<svg width="17" height="20" viewBox="0 0 17 20" fill="none" xmlns="http://www.w3.org/2000/svg">
<g clip-path="url(#clip0_739_7202)">
<path d="M15.0264 7.17326H13.0614V5.41193C13.0614 2.00319 11.4909 0 8.35524 0C5.21959 0 3.64942 2.00319 3.64942 5.41161V7.17294H1.574C0.710221 7.17294 0.00976562 7.8734 0.00976562 8.73718V17.5501C0.00976562 18.2708 0.500292 18.8966 1.20015 19.0693C2.70338 19.44 5.42359 20 8.14379 20C10.8862 20 13.771 19.465 15.359 19.1165C16.0782 18.9588 16.5906 18.324 16.5906 17.5879V8.7375C16.5906 7.87344 15.8902 7.17326 15.0264 7.17326ZM10.1698 11.9539C9.9233 12.0362 9.65797 11.9032 9.57571 11.6579C9.47312 11.351 9.1017 10.9925 8.39439 10.9925C7.81218 10.9925 7.46708 11.3823 7.42705 11.7677C7.37727 12.2486 7.77463 12.6249 8.49041 12.7751C9.94515 13.0798 10.3719 14.0549 10.2949 14.7973C10.2154 15.5676 9.62917 16.1729 8.86366 16.3537V16.8937C8.86366 17.1527 8.65346 17.363 8.39444 17.363C8.13537 17.363 7.92517 17.1527 7.92517 16.8937V16.3729C7.0151 16.218 6.4967 15.6267 6.32275 15.1083C6.24049 14.8624 6.37312 14.5965 6.61871 14.5142C6.86586 14.4322 7.13054 14.5649 7.2128 14.8102C7.31539 15.1171 7.68676 15.4756 8.39412 15.4756C8.97629 15.4756 9.32139 15.0858 9.36141 14.7004C9.41115 14.2196 9.01383 13.8431 8.29805 13.693C6.84331 13.3883 6.41655 12.4132 6.49352 11.6708C6.57302 10.9005 7.15929 10.2952 7.9248 10.1144V9.57409C7.9248 9.31507 8.13501 9.10482 8.39407 9.10482C8.65309 9.10482 8.8633 9.31507 8.8633 9.57409V10.0949C9.77336 10.2498 10.2918 10.8411 10.4657 11.3595C10.548 11.6057 10.4153 11.8713 10.1698 11.9539ZM10.7085 7.17326H6.00235V4.94142C6.00235 3.24142 6.94025 2.35326 8.35529 2.35326C9.77032 2.35326 10.7082 3.24142 10.7082 4.94142V7.17326H10.7085Z" fill="#1B9B85"/>
</g>
<defs>
<clipPath id="clip0_739_7202">
<rect width="16.6" height="20" fill="white"/>
</clipPath>
</defs>
</svg>
