<svg width="20" height="24" viewBox="0 0 20 24" fill="none" xmlns="http://www.w3.org/2000/svg">
<path d="M10.0296 9.77246C7.77114 9.77246 5.94043 11.6032 5.94043 13.8616C5.94043 16.1198 7.77114 17.9507 10.0296 17.9507C12.2879 17.9507 14.1186 16.1198 14.1186 13.8616C14.1186 11.6032 12.288 9.77246 10.0296 9.77246ZM10.3701 15.9713C10.3638 15.9727 10.333 15.9764 10.333 16.0182V16.4647C10.333 16.5868 10.231 16.6862 10.1058 16.6862H9.90311C9.77789 16.6862 9.67601 16.5868 9.67601 16.4647V16.0403C9.67601 16.009 9.64163 15.9969 9.63485 15.9958C9.60976 15.992 9.045 15.9029 8.75315 15.7509C8.68007 15.7129 8.62291 15.6271 8.66005 15.5216L8.76445 15.239C8.79588 15.1543 8.87474 15.0996 8.96508 15.0996C8.99826 15.0996 9.03045 15.1069 9.06081 15.1213C9.06552 15.1236 9.54075 15.3462 9.89188 15.3462C10.3031 15.3462 10.5901 15.1256 10.5901 14.81C10.5901 14.52 10.3874 14.3222 9.89063 14.1271C9.26916 13.8909 8.69362 13.5763 8.69362 12.88C8.69362 12.3214 9.07142 11.8785 9.67594 11.7346C9.6888 11.7315 9.72425 11.7174 9.72425 11.6847L9.72375 11.2584C9.72375 11.1363 9.8257 11.0369 9.95073 11.0369H10.1468C10.2719 11.0369 10.3739 11.1363 10.3739 11.2584L10.3755 11.6638C10.3755 11.6951 10.4023 11.7009 10.41 11.7022C10.4149 11.703 10.8938 11.7856 11.1388 11.8923C11.2125 11.9241 11.2703 12.0128 11.2321 12.1147L11.1228 12.3942C11.0909 12.4758 11.0139 12.5285 10.9268 12.5285C10.8911 12.5285 10.8551 12.5193 10.823 12.5022C10.8203 12.5007 10.515 12.3438 10.117 12.3438C9.6671 12.3438 9.50756 12.59 9.50756 12.8007C9.50756 13.064 9.6814 13.2099 10.2828 13.4509C11.0734 13.7632 11.4108 14.1559 11.4108 14.7636C11.4109 15.3553 11.0141 15.8265 10.3701 15.9713Z" fill="#1B9B85"/>
<path d="M12.7996 4.27392C12.7094 4.22655 12.5122 4.114 12.7086 3.92347L15.0089 1.1972C15.5644 0.538718 15.3141 0 14.4527 0H5.60665C4.74515 0 4.49477 0.538718 5.05036 1.1972L7.40436 3.98715C7.58698 4.1502 7.29514 4.25409 7.17826 4.31739C3.25215 6.44422 0.399902 12.5437 0.399902 16.8692C0.399902 22.1875 4.71134 24 10.0296 24C15.348 24 19.6594 22.1875 19.6594 16.8692C19.6594 12.5138 16.7676 6.35997 12.7996 4.27392ZM10.0296 19.1843C7.08992 19.1843 4.70694 16.8012 4.70694 13.8615C4.70694 10.922 7.08986 8.53886 10.0296 8.53886C12.9692 8.53886 15.3522 10.922 15.3522 13.8615C15.3522 16.8011 12.9693 19.1843 10.0296 19.1843Z" fill="#1B9B85"/>
</svg>
