<svg width="32" height="32" viewBox="0 0 32 32" fill="none" xmlns="http://www.w3.org/2000/svg">
<path opacity="0.998" fill-rule="evenodd" clip-rule="evenodd" d="M14.5625 0C15.5208 0 16.4792 0 17.4375 0C23.0402 0.684505 27.259 3.47167 30.0938 8.36149C31.1372 10.34 31.7726 12.4356 32 14.6483C32 15.6123 32 16.5763 32 17.5403C31.3194 23.1762 28.5486 27.4198 23.6875 30.2711C22.0593 31.1558 20.3302 31.7321 18.5 32C18.5 28.2488 18.5 24.4977 18.5 20.7466C19.75 20.7466 21 20.7466 22.25 20.7466C22.4791 19.1959 22.7083 17.6451 22.9375 16.0943C21.4583 16.0943 19.9792 16.0943 18.5 16.0943C18.4896 14.9206 18.5 13.747 18.5312 12.5737C18.6871 11.5577 19.26 10.9185 20.25 10.6562C21.2056 10.5682 22.1639 10.5368 23.125 10.5619C23.1656 9.21657 23.1239 7.88589 23 6.56975C21.5697 6.35505 20.1322 6.27125 18.6875 6.31827C16.1009 6.59395 14.4447 7.98755 13.7188 10.499C13.6292 10.8716 13.5667 11.2488 13.5312 11.6306C13.5 13.1184 13.4896 14.6063 13.5 16.0943C12.1458 16.0943 10.7917 16.0943 9.4375 16.0943C9.4375 17.6451 9.4375 19.1958 9.4375 20.7466C10.7917 20.7466 12.1458 20.7466 13.5 20.7466C13.5 24.4977 13.5 28.2488 13.5 32C7.73569 30.9479 3.64193 27.7416 1.21875 22.3811C0.585283 20.8172 0.179033 19.2036 0 17.5403C0 16.5763 0 15.6123 0 14.6483C0.680469 9.01262 3.4513 4.76902 8.3125 1.91749C10.2794 0.867917 12.3628 0.228753 14.5625 0Z" fill="#1877F2"/>
<path opacity="0.999" fill-rule="evenodd" clip-rule="evenodd" d="M18.5 31.8125C18.1261 31.8832 17.7511 31.9457 17.375 32C16.4583 32 15.5417 32 14.625 32C14.2548 31.946 13.8798 31.8835 13.5 31.8125C13.5 28.0833 13.5 24.3542 13.5 20.625C12.1458 20.625 10.7917 20.625 9.4375 20.625C9.4375 19.0833 9.4375 17.5417 9.4375 16C10.7917 16 12.1458 16 13.5 16C13.4896 14.5207 13.5 13.0415 13.5312 11.5625C13.5668 11.1829 13.6293 10.8079 13.7188 10.4375C14.4447 7.94078 16.1009 6.55534 18.6875 6.28128C20.1322 6.23453 21.5697 6.31784 23 6.53128C23.1239 7.83971 23.1656 9.16259 23.125 10.5C22.1639 10.4751 21.2056 10.5063 20.25 10.5938C19.26 10.8546 18.6871 11.49 18.5312 12.5C18.5 13.6665 18.4896 14.8332 18.5 16C19.9792 16 21.4583 16 22.9375 16C22.7083 17.5418 22.4791 19.0835 22.25 20.625C21 20.625 19.75 20.625 18.5 20.625C18.5 24.3542 18.5 28.0833 18.5 31.8125Z" fill="#FEFEFE"/>
</svg>
