<svg width="32" height="32" viewBox="0 0 32 32" fill="none" xmlns="http://www.w3.org/2000/svg">
<path opacity="0.995" fill-rule="evenodd" clip-rule="evenodd" d="M14.625 0C15.0833 0 15.5417 0 16 0C16 2.10417 16 4.20833 16 6.3125C12.3377 6.43437 9.54606 8.03856 7.625 11.125C5.77668 10.1101 3.94334 9.06844 2.125 8C4.96609 3.28762 9.13275 0.620954 14.625 0Z" fill="#FF4B25"/>
<path fill-rule="evenodd" clip-rule="evenodd" d="M16 0C16.4583 0 16.9167 0 17.375 0C20.7294 0.34404 23.7086 1.58363 26.3125 3.71875C26.8834 4.13982 27.0189 4.67107 26.7187 5.3125C25.625 6.40625 24.5312 7.5 23.4375 8.59375C23.0926 8.77094 22.7384 8.79181 22.375 8.65625C20.5365 7.11613 18.4115 6.33488 16 6.3125C16 4.20833 16 2.10417 16 0Z" fill="#D93F21"/>
<path opacity="0.994" fill-rule="evenodd" clip-rule="evenodd" d="M2.125 8C3.94334 9.06844 5.77668 10.1101 7.625 11.125C6.02818 14.0544 5.89277 17.0544 7.21875 20.125C7.34337 20.3839 7.47881 20.6339 7.625 20.875C5.79337 21.9159 3.96004 22.9576 2.125 24C0.940412 21.9671 0.232077 19.7796 0 17.4375C0 16.4792 0 15.5208 0 14.5625C0.232077 12.2204 0.940412 10.0329 2.125 8Z" fill="#FED400"/>
<path opacity="0.992" fill-rule="evenodd" clip-rule="evenodd" d="M32 14.875C32 15.7708 32 16.6666 32 17.5625C31.3563 22.9993 28.6896 27.1035 24 29.875C22.9591 28.0433 21.9175 26.21 20.875 24.375C22.8144 23.2273 24.1894 21.6023 25 19.5C22.4791 19.5104 19.9583 19.5 17.4375 19.4687C17.0994 19.3598 16.8598 19.141 16.7188 18.8125C16.6771 17.1666 16.6771 15.5208 16.7188 13.875C16.83 13.618 17.007 13.4201 17.25 13.2812C21.8506 13.1776 26.4548 13.1568 31.0625 13.2187C31.3321 13.3003 31.5508 13.4566 31.7188 13.6875C31.8533 14.0812 31.9471 14.477 32 14.875Z" fill="#167DE6"/>
<path opacity="0.995" fill-rule="evenodd" clip-rule="evenodd" d="M7.625 20.875C9.54606 23.9614 12.3377 25.5656 16 25.6875C16 27.7917 16 29.8958 16 32C15.5417 32 15.0833 32 14.625 32C9.13275 31.3791 4.96609 28.7124 2.125 24C3.96004 22.9576 5.79337 21.9159 7.625 20.875Z" fill="#12B346"/>
<path fill-rule="evenodd" clip-rule="evenodd" d="M20.875 24.375C21.9174 26.2101 22.9591 28.0434 24 29.875C21.9487 31.0726 19.7404 31.781 17.375 32C16.9167 32 16.4583 32 16 32C16 29.8958 16 27.7917 16 25.6875C17.7492 25.6982 19.3742 25.2607 20.875 24.375Z" fill="#0F993E"/>
</svg>
