<svg width="22" height="22" viewBox="0 0 22 22" fill="none" xmlns="http://www.w3.org/2000/svg">
<path fill-rule="evenodd" clip-rule="evenodd" d="M6 3.75C5.68351 3.75 5.3742 3.77393 5.07284 3.82296C2.07211 4.23221 0.25 6.64568 0.25 9.81982V15.1802C0.25 16.9249 0.793549 18.4433 1.81262 19.5358C2.83918 20.6364 4.2991 21.25 6 21.25H16C17.7009 21.25 19.1608 20.6364 20.1874 19.5358C21.2065 18.4433 21.75 16.9249 21.75 15.1802V15.1383C21.5808 15.2105 21.3974 15.25 21.2059 15.25H17.6765C16.3364 15.25 15.25 14.0188 15.25 12.5C15.25 10.9812 16.3364 9.75 17.6765 9.75H21.2059C21.3974 9.75 21.5808 9.78952 21.75 9.86174V9.81982C21.75 6.62367 19.8967 4.19938 16.868 3.8122C16.5676 3.76046 16.2713 3.75 16 3.75H6ZM17.6765 13.75C17.0673 13.75 16.5735 13.1904 16.5735 12.5C16.5735 11.8096 17.0673 11.25 17.6765 11.25H21.2059C21.3277 11.25 21.4265 11.3619 21.4265 11.5V13.5C21.4265 13.6381 21.3277 13.75 21.2059 13.75H17.6765Z" fill="#1B9B85"/>
<path d="M15.7596 1.14465C15.7027 1.1021 15.6364 1.05003 15.5627 0.992111C15.2807 0.770515 14.8897 0.463331 14.5003 0.276917C14.2322 0.148562 13.9084 0.0444528 13.5459 0.0502161C13.1711 0.056173 12.8082 0.178859 12.474 0.421591L12.4456 0.442202L9.61017 2.93687L9.54032 3H16.5816C16.8844 3 17.2152 3.01016 17.5505 3.06042C17.7441 3.08196 17.9335 3.11 18.1183 3.14429L15.778 1.15843L15.7596 1.14465Z" fill="#1B9B85"/>
<path d="M7.54032 3H5.41877C5.06548 3 4.7202 3.02325 4.3838 3.07087C3.96932 3.12006 3.57498 3.19907 3.20215 3.30559L3.61017 2.93687L6.44561 0.442202L6.47399 0.421591C6.80824 0.178859 7.17112 0.056173 7.54587 0.0502161C7.90845 0.0444528 8.23216 0.148562 8.50027 0.276917C8.88966 0.463331 9.28066 0.770515 9.56272 0.992111C9.61174 1.03062 9.65747 1.06654 9.69932 1.0988L7.61017 2.93687L7.54032 3Z" fill="#1B9B85"/>
</svg>
