<svg width="22" height="22" viewBox="0 0 22 22" fill="none" xmlns="http://www.w3.org/2000/svg">
<path opacity="0.992" fill-rule="evenodd" clip-rule="evenodd" d="M10.0117 0C10.6706 0 11.3294 0 11.9883 0C15.8402 0.467839 18.7406 2.37279 20.6895 5.71484C21.4068 7.06711 21.8436 8.49939 22 10.0117C22 10.6706 22 11.3294 22 11.9883C21.5322 15.8402 19.6272 18.7406 16.2852 20.6895C14.9329 21.4068 13.5006 21.8436 11.9883 22C11.3294 22 10.6706 22 10.0117 22C8.72992 21.8656 7.49818 21.5291 6.31641 20.9902C5.5348 21.0154 4.76137 21.1157 3.99609 21.291C2.96676 21.4981 1.94983 21.7345 0.945312 22C0.773438 22 0.601562 22 0.429688 22C0.305684 21.9407 0.198263 21.8548 0.107422 21.7422C0.0905468 21.4405 0.10487 21.1398 0.150391 20.8398C0.836602 19.9667 1.43816 19.0357 1.95508 18.0469C2.02238 17.9022 2.07251 17.7519 2.10547 17.5957C1.54284 16.7357 1.06303 15.8262 0.666016 14.8672C0.327377 13.9284 0.105372 12.9688 0 11.9883C0 11.3294 0 10.6706 0 10.0117C0.467822 6.15987 2.37277 3.25949 5.71484 1.31055C7.06711 0.593196 8.49939 0.156346 10.0117 0ZM10.957 5.5C13.0952 5.70457 14.2553 6.87904 14.4375 9.02344C14.2923 11.1739 13.1608 12.4486 11.043 12.8477C11.0176 13.4506 10.9818 14.0522 10.9355 14.6523C10.708 15.0916 10.3715 15.199 9.92578 14.9746C9.8138 14.8913 9.73504 14.7839 9.68945 14.6523C9.60412 13.8218 9.60412 12.9911 9.68945 12.1602C9.9538 11.6161 10.3906 11.3942 11 11.4941C12.0985 11.3 12.7789 10.6626 13.041 9.58203C13.2482 8.52625 12.9116 7.70266 12.0312 7.11133C11.0022 6.64413 10.107 6.82314 9.3457 7.64844C9.00127 8.16643 8.84374 8.73937 8.87305 9.36719C8.64175 9.81191 8.30517 9.91934 7.86328 9.68945C7.6707 9.51904 7.57041 9.3042 7.5625 9.04492C7.72496 6.92751 8.85646 5.74587 10.957 5.5ZM10.0977 15.8555C10.8395 15.845 11.0901 16.1888 10.8496 16.8867C10.581 17.1665 10.2731 17.2166 9.92578 17.0371C9.64601 16.7685 9.59591 16.4606 9.77539 16.1133C9.86623 16.0007 9.97365 15.9147 10.0977 15.8555Z" fill="#1B9B85"/>
</svg>
