<svg width="24" height="18" viewBox="0 0 24 18" fill="none" xmlns="http://www.w3.org/2000/svg">
<path fill-rule="evenodd" clip-rule="evenodd" d="M18.1726 1.10254C17.6671 0.87554 17.1113 0.75 16.5278 0.75H4.97222C2.64035 0.75 0.75 2.75512 0.75 5.22857V6.75H18V6.08167C17.3503 6.38971 16.5501 6.27497 16.0126 5.73744C15.3291 5.05402 15.3291 3.94598 16.0126 3.26256L18.1726 1.10254ZM18 8.16429H0.75V12.7714C0.75 15.2449 2.64035 17.25 4.97222 17.25H16.5278C18.8596 17.25 20.75 15.2449 20.75 12.7714V9.93633C20.4665 10.134 20.1218 10.25 19.75 10.25C18.7835 10.25 18 9.4665 18 8.5V8.16429Z" fill="#1B9B85"/>
<path fill-rule="evenodd" clip-rule="evenodd" d="M19.4697 1.46967C19.7626 1.17678 20.2374 1.17678 20.5303 1.46967L23.0303 3.96967C23.3232 4.26256 23.3232 4.73744 23.0303 5.03033C22.7374 5.32322 22.2626 5.32322 21.9697 5.03033L20.75 3.81066V8.5C20.75 8.91421 20.4142 9.25 20 9.25C19.5858 9.25 19.25 8.91421 19.25 8.5L19.25 3.81066L18.0303 5.03033C17.7374 5.32322 17.2626 5.32322 16.9697 5.03033C16.6768 4.73744 16.6768 4.26256 16.9697 3.96967L19.4697 1.46967Z" fill="#1B9B85"/>
</svg>
